<svg xmlns="http://www.w3.org/2000/svg" width="244" height="165" viewBox="0 0 244 165">
  <g id="Grupo_93366" data-name="Grupo 93366" transform="translate(0 0.11)">
    <g id="Rectángulo_35434" data-name="Rectángulo 35434" transform="translate(0 -0.11)" fill="#ffdfe0" stroke="#ff5f65" stroke-width="1">
      <rect width="244" height="165" rx="10" stroke="none"/>
      <rect x="0.5" y="0.5" width="243" height="164" rx="9.5" fill="none"/>
    </g>
    <path id="Trazado_135509" data-name="Trazado 135509" d="M-48.324-6.336a4.548,4.548,0,0,0-.742-.078,2.136,2.136,0,0,0-1.867.883L-51.91,0h-2.2l1.469-8.453,2.07-.008-.2,1.031a2.325,2.325,0,0,1,1.969-1.2,3.214,3.214,0,0,1,.766.109ZM-44.5.156a3.677,3.677,0,0,1-1.965-.543,3.292,3.292,0,0,1-1.277-1.469,4.093,4.093,0,0,1-.328-2.059l.023-.312a5.465,5.465,0,0,1,.719-2.266,4.341,4.341,0,0,1,1.547-1.59,3.827,3.827,0,0,1,2.094-.527,2.924,2.924,0,0,1,2.473,1.2,4.117,4.117,0,0,1,.637,2.962l-.125.962h-5.18a1.814,1.814,0,0,0,.4,1.313,1.521,1.521,0,0,0,1.172.508A2.7,2.7,0,0,0-42.207-2.6l1.008,1.25A3.135,3.135,0,0,1-42.574-.23,4.5,4.5,0,0,1-44.5.156Zm.7-6.945a1.565,1.565,0,0,0-1.082.383,3.363,3.363,0,0,0-.848,1.383H-42.7l.047-.2a2.071,2.071,0,0,0,.008-.594,1.134,1.134,0,0,0-.383-.707A1.2,1.2,0,0,0-43.8-6.789Zm4.172,2.555a5.849,5.849,0,0,1,1.277-3.184,3.242,3.242,0,0,1,2.629-1.2,2.37,2.37,0,0,1,2.016.977l.289-.82,2.023.008L-32.777-.289a3.983,3.983,0,0,1-1.437,2.672,4.471,4.471,0,0,1-3,.953,4.168,4.168,0,0,1-1.672-.379,3.575,3.575,0,0,1-1.312-1L-39.105.617a2.349,2.349,0,0,0,1.844.961,2.166,2.166,0,0,0,1.469-.449,2.4,2.4,0,0,0,.828-1.355l.125-.508a2.749,2.749,0,0,1-2.07.891,2.428,2.428,0,0,1-1.961-.918,3.947,3.947,0,0,1-.8-2.348A7.89,7.89,0,0,1-39.629-4.234Zm2.164.927a2.02,2.02,0,0,0,.309,1.178,1.08,1.08,0,0,0,.895.466,1.972,1.972,0,0,0,1.594-.767l.656-3.583a1.3,1.3,0,0,0-1.242-.767,1.728,1.728,0,0,0-1.43.681,3.561,3.561,0,0,0-.734,1.87A8.214,8.214,0,0,0-37.465-3.307ZM-25.879-.875A2.919,2.919,0,0,1-28.207.156a2.172,2.172,0,0,1-1.844-.875,3.2,3.2,0,0,1-.484-2.266l.914-5.469h2.2l-.93,5.5a2.175,2.175,0,0,0-.008.485.8.8,0,0,0,.867.806,2.014,2.014,0,0,0,1.7-.79l1.055-6h2.219L-23.988,0h-2.055ZM-20.02,0h-2.219l2.086-12h2.211Zm6.758,0a2.281,2.281,0,0,1-.086-.766A2.863,2.863,0,0,1-15.5.156a2.594,2.594,0,0,1-1.84-.723,2.186,2.186,0,0,1-.684-1.746,2.527,2.527,0,0,1,1.16-2.121A5.266,5.266,0,0,1-13.9-5.172l1.031.016.109-.508a1.764,1.764,0,0,0,.023-.492.846.846,0,0,0-.277-.574.955.955,0,0,0-.629-.215,1.345,1.345,0,0,0-.875.254,1.231,1.231,0,0,0-.461.777l-2.211.008a2.457,2.457,0,0,1,1.113-1.965,4.312,4.312,0,0,1,2.613-.738,3.117,3.117,0,0,1,2.25.855,2.5,2.5,0,0,1,.68,2.121l-.648,4.047-.039.5a2.412,2.412,0,0,0,.133.938L-11.1,0Zm-1.7-1.555a2.017,2.017,0,0,0,1.664-.828l.273-1.461-.766-.008a2.139,2.139,0,0,0-1.758.742,1.292,1.292,0,0,0-.242.633.75.75,0,0,0,.176.668A.891.891,0,0,0-14.957-1.555ZM-3.965-6.336a4.548,4.548,0,0,0-.742-.078,2.136,2.136,0,0,0-1.867.883L-7.551,0h-2.2l1.469-8.453,2.07-.008-.2,1.031a2.325,2.325,0,0,1,1.969-1.2,3.214,3.214,0,0,1,.766.109ZM3.488-2.789,5.895-8.453H8.27L4.184,0H2.074L.629-8.453H2.863ZM11.77.156A3.677,3.677,0,0,1,9.8-.387,3.292,3.292,0,0,1,8.527-1.855,4.093,4.093,0,0,1,8.2-3.914l.023-.312a5.465,5.465,0,0,1,.719-2.266,4.341,4.341,0,0,1,1.547-1.59,3.827,3.827,0,0,1,2.094-.527,2.924,2.924,0,0,1,2.473,1.2,4.117,4.117,0,0,1,.637,2.962l-.125.962h-5.18a1.814,1.814,0,0,0,.4,1.313,1.521,1.521,0,0,0,1.172.508A2.7,2.7,0,0,0,14.066-2.6l1.008,1.25A3.135,3.135,0,0,1,13.7-.23,4.5,4.5,0,0,1,11.77.156Zm.7-6.945a1.565,1.565,0,0,0-1.082.383,3.363,3.363,0,0,0-.848,1.383h3.031l.047-.2a2.071,2.071,0,0,0,.008-.594,1.134,1.134,0,0,0-.383-.707A1.2,1.2,0,0,0,12.473-6.789Zm9.539.453a4.548,4.548,0,0,0-.742-.078,2.136,2.136,0,0,0-1.867.883L18.426,0h-2.2l1.469-8.453,2.07-.008-.2,1.031a2.325,2.325,0,0,1,1.969-1.2,3.214,3.214,0,0,1,.766.109ZM30.09-4.2A6.061,6.061,0,0,1,28.871-1,3.033,3.033,0,0,1,26.324.164,2.357,2.357,0,0,1,24.293-.914L23.973,0H21.965l2.078-12h2.211L25.4-7.68a2.634,2.634,0,0,1,2.063-.93,2.385,2.385,0,0,1,1.926.879,3.89,3.89,0,0,1,.746,2.387A9.133,9.133,0,0,1,30.09-4.2ZM27.9-4.368A6.554,6.554,0,0,0,27.949-5.4q-.086-1.364-1.125-1.387a1.833,1.833,0,0,0-1.617.885L24.6-2.534a1.258,1.258,0,0,0,1.266.878q1.625.047,1.992-2.367Zm7.836.407H31.457l.313-1.82h4.289ZM40.887.156a3.677,3.677,0,0,1-1.965-.543,3.292,3.292,0,0,1-1.277-1.469,4.093,4.093,0,0,1-.328-2.059l.023-.312a5.465,5.465,0,0,1,.719-2.266,4.341,4.341,0,0,1,1.547-1.59A3.827,3.827,0,0,1,41.7-8.609a2.924,2.924,0,0,1,2.473,1.2,4.117,4.117,0,0,1,.637,2.962l-.125.962H39.5a1.814,1.814,0,0,0,.4,1.313,1.521,1.521,0,0,0,1.172.508A2.7,2.7,0,0,0,43.184-2.6l1.008,1.25A3.135,3.135,0,0,1,42.816-.23,4.5,4.5,0,0,1,40.887.156Zm.7-6.945a1.565,1.565,0,0,0-1.082.383,3.363,3.363,0,0,0-.848,1.383h3.031l.047-.2a2.071,2.071,0,0,0,.008-.594,1.134,1.134,0,0,0-.383-.707A1.2,1.2,0,0,0,41.59-6.789Zm7.945-1.828a2.4,2.4,0,0,1,1.906.945L52.27-12H54.48L52.4,0H50.434l.125-.906a2.736,2.736,0,0,1-2.2,1.07A2.433,2.433,0,0,1,46.973-.25a2.607,2.607,0,0,1-.918-1.168,4.7,4.7,0,0,1-.355-1.7,6.4,6.4,0,0,1,.023-.953l.047-.352A6.767,6.767,0,0,1,46.492-6.7,3.766,3.766,0,0,1,47.8-8.164,3.094,3.094,0,0,1,49.535-8.617Zm-1.6,4.547a6.327,6.327,0,0,0-.039,1Q47.973-1.7,49-1.672a1.885,1.885,0,0,0,1.617-.875l.6-3.359A1.248,1.248,0,0,0,50-6.781a1.606,1.606,0,0,0-1.34.621A4.176,4.176,0,0,0,47.934-4.07Z" transform="translate(122 92.889)" fill="#3c3fa7"/>
    <path id="Trazado_135510" data-name="Trazado 135510" d="M-14.016,0h-2.219l2.086-12h2.211Zm4.2,0h-2.219l1.469-8.453h2.219Zm-.492-10.6a1.1,1.1,0,0,1,.344-.867,1.209,1.209,0,0,1,.867-.344,1.215,1.215,0,0,1,.867.3,1.1,1.1,0,0,1,.383.828,1.132,1.132,0,0,1-.324.844,1.215,1.215,0,0,1-.887.375,1.235,1.235,0,0,1-.863-.3A1.091,1.091,0,0,1-10.312-10.6ZM-4.4-2.789l2.406-5.664H.383L-3.7,0H-5.812L-7.258-8.453h2.234ZM3.883.156A3.677,3.677,0,0,1,1.918-.387,3.292,3.292,0,0,1,.641-1.855,4.093,4.093,0,0,1,.313-3.914l.023-.312a5.465,5.465,0,0,1,.719-2.266A4.341,4.341,0,0,1,2.6-8.082,3.827,3.827,0,0,1,4.7-8.609a2.924,2.924,0,0,1,2.473,1.2A4.117,4.117,0,0,1,7.8-4.447l-.125.962H2.5a1.814,1.814,0,0,0,.4,1.313,1.521,1.521,0,0,0,1.172.508A2.7,2.7,0,0,0,6.18-2.6l1.008,1.25A3.135,3.135,0,0,1,5.813-.23,4.5,4.5,0,0,1,3.883.156Zm.7-6.945A1.565,1.565,0,0,0,3.5-6.406a3.363,3.363,0,0,0-.848,1.383H5.688l.047-.2a2.071,2.071,0,0,0,.008-.594,1.134,1.134,0,0,0-.383-.707A1.2,1.2,0,0,0,4.586-6.789Zm8.648,4.406q.125-.625-.867-.906l-.711-.18Q9.133-4.164,9.2-5.922a2.428,2.428,0,0,1,1.059-1.949,3.942,3.942,0,0,1,2.457-.738,3.536,3.536,0,0,1,2.313.758,2.5,2.5,0,0,1,.9,1.977l-2.187-.008a.963.963,0,0,0-1.078-1.1,1.552,1.552,0,0,0-.895.258,1.061,1.061,0,0,0-.465.7q-.117.625.945.883l.313.07a6.285,6.285,0,0,1,1.648.59,2.488,2.488,0,0,1,.879.824,2.04,2.04,0,0,1,.285,1.18,2.251,2.251,0,0,1-.52,1.406,3.18,3.18,0,0,1-1.359.93,4.736,4.736,0,0,1-1.816.3A3.568,3.568,0,0,1,9.336-.652,2.607,2.607,0,0,1,8.383-2.7l2.078.016a1.142,1.142,0,0,0,1.3,1.227,1.845,1.845,0,0,0,1-.25A.987.987,0,0,0,13.234-2.383Z" transform="translate(122 131.889)" fill="#3c3fa7"/>
    <line id="Línea_352" data-name="Línea 352" x2="112" transform="translate(66.5 108.26)" fill="none" stroke="#3c3fa7" stroke-linecap="round" stroke-width="2"/>
    <rect id="Rectángulo_35451" data-name="Rectángulo 35451" width="219" height="42" rx="10" transform="translate(13 27.89)" fill="#ff5f65"/>
    <path id="Trazado_135508" data-name="Trazado 135508" d="M4.734-2.844l3.828-8.531h2.625L5.57,0H3.18L1.133-11.375H3.594Zm9.188,3a3.677,3.677,0,0,1-1.965-.543A3.292,3.292,0,0,1,10.68-1.855a4.093,4.093,0,0,1-.328-2.059l.023-.312a5.465,5.465,0,0,1,.719-2.266,4.341,4.341,0,0,1,1.547-1.59,3.827,3.827,0,0,1,2.094-.527,2.924,2.924,0,0,1,2.473,1.2,4.117,4.117,0,0,1,.637,2.962l-.125.962h-5.18a1.814,1.814,0,0,0,.4,1.313,1.521,1.521,0,0,0,1.172.508A2.7,2.7,0,0,0,16.219-2.6l1.008,1.25A3.135,3.135,0,0,1,15.852-.23,4.5,4.5,0,0,1,13.922.156Zm.7-6.945a1.565,1.565,0,0,0-1.082.383A3.363,3.363,0,0,0,12.7-5.023h3.031l.047-.2a2.071,2.071,0,0,0,.008-.594,1.134,1.134,0,0,0-.383-.707A1.2,1.2,0,0,0,14.625-6.789Zm9.539.453a4.548,4.548,0,0,0-.742-.078,2.136,2.136,0,0,0-1.867.883L20.578,0h-2.2l1.469-8.453,2.07-.008-.2,1.031a2.325,2.325,0,0,1,1.969-1.2,3.214,3.214,0,0,1,.766.109ZM32.242-4.2A6.061,6.061,0,0,1,31.023-1,3.033,3.033,0,0,1,28.477.164,2.357,2.357,0,0,1,26.445-.914L26.125,0H24.117L26.2-12h2.211l-.852,4.32a2.634,2.634,0,0,1,2.063-.93,2.385,2.385,0,0,1,1.926.879,3.89,3.89,0,0,1,.746,2.387A9.132,9.132,0,0,1,32.242-4.2Zm-2.187-.165A6.554,6.554,0,0,0,30.1-5.4q-.086-1.364-1.125-1.387a1.833,1.833,0,0,0-1.617.885l-.609,3.37a1.258,1.258,0,0,0,1.266.878q1.625.047,1.992-2.367ZM38.469.977h-1.68l4.188-12.352h1.68Zm13.6-3.8,2.578-8.555h2.609L53.3,0H50.852L46.906-11.375h2.6ZM61.727.156A4.15,4.15,0,0,1,58.7-.984a4.054,4.054,0,0,1-1.168-3.039v-.219a5.106,5.106,0,0,1,.492-2.277,3.612,3.612,0,0,1,1.395-1.547,3.914,3.914,0,0,1,2.059-.543,3.508,3.508,0,0,1,2.73,1.094,4.444,4.444,0,0,1,1,3.1v.922H59.82a2.1,2.1,0,0,0,.66,1.328,2,2,0,0,0,1.395.5,2.437,2.437,0,0,0,2.039-.945l1.109,1.242A3.389,3.389,0,0,1,63.648-.246,4.511,4.511,0,0,1,61.727.156Zm-.258-6.945a1.411,1.411,0,0,0-1.09.455,2.357,2.357,0,0,0-.535,1.3h3.141v-.181a1.681,1.681,0,0,0-.406-1.165A1.456,1.456,0,0,0,61.469-6.789Zm9.766.453a6.134,6.134,0,0,0-.812-.062,1.654,1.654,0,0,0-1.68.867V0H66.484V-8.453h2.133l.063,1.008a2.092,2.092,0,0,1,1.883-1.164,2.366,2.366,0,0,1,.7.1Zm8.7,2.188A5.119,5.119,0,0,1,79.07-.98,2.872,2.872,0,0,1,76.648.156,2.639,2.639,0,0,1,74.453-.9l-.1.9H72.32V-12h2.258v4.3a2.571,2.571,0,0,1,2.055-.914,2.9,2.9,0,0,1,2.426,1.137,5.126,5.126,0,0,1,.879,3.2ZM77.68-4.321A3.381,3.381,0,0,0,77.273-6.2a1.372,1.372,0,0,0-1.211-.592,1.489,1.489,0,0,0-1.484.885v3.346a1.509,1.509,0,0,0,1.5.893,1.4,1.4,0,0,0,1.438-1.081A5.6,5.6,0,0,0,77.68-4.321Zm3.3.016a5.013,5.013,0,0,1,.484-2.242A3.546,3.546,0,0,1,82.855-8.07a4.069,4.069,0,0,1,2.113-.539,3.849,3.849,0,0,1,2.793,1.047,4.2,4.2,0,0,1,1.207,2.844l.016.578A4.418,4.418,0,0,1,87.9-1.02,3.775,3.775,0,0,1,84.984.156a3.793,3.793,0,0,1-2.918-1.172A4.5,4.5,0,0,1,80.977-4.2Zm2.258.16A3.16,3.16,0,0,0,83.688-2.3a1.5,1.5,0,0,0,1.3.638,1.5,1.5,0,0,0,1.281-.63,3.457,3.457,0,0,0,.461-2.015,3.128,3.128,0,0,0-.461-1.831,1.5,1.5,0,0,0-1.3-.649,1.474,1.474,0,0,0-1.281.646A3.516,3.516,0,0,0,83.234-4.144Z" transform="translate(78 51.889)" fill="#12263f"/>
  </g>
</svg>
